<svg width="54" height="32" viewBox="0 0 54 32" fill="none" xmlns="http://www.w3.org/2000/svg">
<path d="M0.5 4C0.5 2.067 2.067 0.5 4 0.5H49.3333C51.2663 0.5 52.8333 2.067 52.8333 4V28C52.8333 29.933 51.2663 31.5 49.3333 31.5H4C2.067 31.5 0.5 29.933 0.5 28V4Z" fill="white" stroke="#E8E8EA"/>
<path d="M35.5656 8.77039C36.3446 8.62329 37.0583 8.62874 37.7502 8.863C38.7362 9.20622 39.7223 9.56033 40.692 9.95258C41.7108 10.3612 42.3591 11.1729 42.9202 12.0827C43.9389 13.7225 44.9795 15.3405 46.0255 16.964C46.1835 17.2092 46.1835 17.3399 45.9656 17.5578C44.6853 18.8054 43.4268 20.0747 42.1684 21.3441C41.9777 21.5348 41.8252 21.7527 41.6236 21.9978C40.6648 21.5838 39.5588 21.3931 38.758 20.6141C37.1454 19.0451 35.5601 17.4489 33.9748 15.8526C33.5226 15.4005 33.5008 14.6704 33.8931 14.191C34.3234 13.6517 35.0262 13.4937 35.5928 13.8642C36.7096 14.5996 37.8101 15.3514 38.8997 16.1141C39.597 16.6044 40.3107 16.6753 41.0679 16.2994C41.215 16.2285 41.3621 16.1577 41.5146 16.0923C42.1139 15.809 42.1902 15.3841 41.7271 14.921C39.7713 12.9653 37.8101 11.004 35.8543 9.04823C35.778 8.98285 35.6963 8.90114 35.5656 8.77039Z" fill="#333F48"/>
<path d="M38.7469 22.1948C38.5453 22.3637 38.3601 22.5598 38.1422 22.6905C37.6845 22.9738 37.1288 22.8976 36.7257 22.538C36.6658 22.489 36.6113 22.4345 36.5568 22.38C33.5877 19.4109 30.6186 16.4418 27.6495 13.4727C27.3826 13.2058 27.1865 12.9116 27.1756 12.5193C27.1701 12.187 27.2736 11.8874 27.5079 11.6531C28.7555 10.3947 29.9976 9.14166 31.2615 7.89954C31.7681 7.40378 32.4927 7.44192 32.9939 7.94312C35.4019 10.3511 37.8044 12.7536 40.2123 15.1616C40.245 15.1943 40.2723 15.2324 40.3213 15.2814C40.0598 15.4013 39.8582 15.2978 39.6676 15.1616C38.5998 14.4316 37.5265 13.6961 36.4642 12.9606C35.4128 12.2361 34.1706 12.2905 33.2227 13.1186C32.3946 13.8377 32.1495 15.118 32.6779 16.1258C32.825 16.4037 33.0211 16.6652 33.2391 16.8831C34.6664 18.3322 36.1101 19.7759 37.5592 21.2033C37.9188 21.5519 38.3219 21.8461 38.7469 22.1948Z" fill="#333F48"/>
<path d="M44.9434 20.3151C45.5645 19.6941 46.1801 19.0785 46.8012 18.4574C47.4222 17.8364 48.125 17.8418 48.7461 18.4629C48.8496 18.5664 48.9476 18.6644 49.0511 18.7679C49.5578 19.2855 49.5959 20.0101 49.0893 20.5276C47.7872 21.8514 46.4797 23.1589 45.1559 24.461C44.6547 24.9513 43.9574 24.9295 43.4398 24.4664C43.2982 24.3357 43.162 24.1995 43.0312 24.0578C42.5028 23.4967 42.4973 22.783 43.0367 22.2328C43.6632 21.5845 44.306 20.9525 44.9434 20.3151Z" fill="#333F48"/>
<path d="M10.2266 10.0371H8.51953V14.666H7.14844V10.0371H5.47266V8.97852H10.2266V10.0371Z" fill="#333F48"/>
<path d="M12.1095 14.666H10.7423V8.97852H12.1095V14.666Z" fill="#333F48"/>
<path d="M16.43 12.2559H14.2737V13.6113H16.8206V14.666H12.9027V8.97852H16.8284V10.0371H14.2737V11.2363H16.43V12.2559ZM16.3987 8.69727H15.5511L14.9886 8.24414L14.43 8.69727H13.5706L14.6683 7.8457H15.3089L16.3987 8.69727ZM13.8558 8.23633H13.1683L12.2347 7.16211H13.1722L13.8558 8.23633Z" fill="#333F48"/>
<path d="M21.9692 14.666H20.6059L18.5903 11.127V14.666H17.2192V8.97852H18.5903L20.602 12.5176V8.97852H21.9692V14.666Z" fill="#333F48"/>
<path d="M7.56445 18.3125L8.83398 22.2695L10.0996 18.3125H11.9043V24H10.5293V22.6719L10.6621 19.9531L9.28711 24H8.38086L7.00195 19.9492L7.13477 22.6719V24H5.76367V18.3125H7.56445Z" fill="#333F48"/>
<path d="M15.9201 22.9375H14.0412L13.713 24H12.2482L14.3341 18.3125H15.6232L17.7248 24H16.2521L15.9201 22.9375ZM14.3693 21.8789H15.592L14.9787 19.9062L14.3693 21.8789ZM16.4396 16.7812C16.4396 17.138 16.3081 17.4271 16.0451 17.6484C15.7821 17.8698 15.4318 17.9805 14.9943 17.9805C14.5568 17.9805 14.2065 17.8698 13.9435 17.6484C13.6805 17.4271 13.549 17.138 13.549 16.7812H14.4435C14.4435 16.9375 14.4917 17.0599 14.588 17.1484C14.687 17.2344 14.8224 17.2773 14.9943 17.2773C15.1662 17.2773 15.299 17.2357 15.3927 17.1523C15.4891 17.0664 15.5373 16.9427 15.5373 16.7812H16.4396ZM14.2755 24.8633C14.2755 24.694 14.3446 24.5547 14.4826 24.4453C14.6232 24.3359 14.7977 24.2812 15.006 24.2812C15.2143 24.2812 15.3875 24.3359 15.5255 24.4453C15.6662 24.5547 15.7365 24.694 15.7365 24.8633C15.7365 25.0326 15.6662 25.1719 15.5255 25.2812C15.3875 25.3906 15.2143 25.4453 15.006 25.4453C14.7977 25.4453 14.6232 25.3906 14.4826 25.2812C14.3446 25.1719 14.2755 25.0326 14.2755 24.8633Z" fill="#333F48"/>
<path d="M21.9788 19.3711H20.2718V24H18.9007V19.3711H17.2249V18.3125H21.9788V19.3711Z" fill="#333F48"/>
</svg>
