<svg xmlns="http://www.w3.org/2000/svg" viewBox="0 0 72 24" width="72" height="24"><path d="M12 2A10 10 0 1 1 2 12 10 10 0 0 1 12 2m0-2a12 12 0 1 0 12 12A12 12 0 0 0 12 0z" fill="#ababab"/><path fill="#ababab" fill-rule="evenodd" d="M18.47 8.65L17.2 7.39l-6.62 6.62-3.55-3.55-1.26 1.26 4.81 4.81h.01l7.88-7.88z"/><path fill="none" d="M.06 0h24v24h-24z"/><g><circle cx="60" cy="12" r="12" fill="#378694"/><path fill="#fff" fill-rule="evenodd" d="M66.47 8.65L65.2 7.39l-6.62 6.62-3.55-3.55-1.26 1.26 4.81 4.81h.01l7.88-7.88z"/></g></svg>