<svg width="54" height="32" viewBox="0 0 54 32" fill="none" xmlns="http://www.w3.org/2000/svg">
<path d="M0.5 4C0.5 2.067 2.067 0.5 4 0.5H50C51.933 0.5 53.5 2.067 53.5 4V28C53.5 29.933 51.933 31.5 50 31.5H4C2.067 31.5 0.5 29.933 0.5 28V4Z" fill="white" stroke="#E8E8EA"/>
<path d="M26.3167 13.2503C26.8074 13.2503 27.2982 13.2503 27.7892 13.2503C28.1992 14.3892 28.6077 15.5288 29.0181 16.6674C29.3648 15.7316 29.7113 14.7955 30.0583 13.8597C30.0823 13.7929 30.0814 13.7163 30.0512 13.6515C29.9895 13.5155 29.9191 13.3839 29.8464 13.2536C30.2127 13.2536 30.5789 13.2536 30.9449 13.2536C30.8884 13.4603 30.8128 13.6608 30.7427 13.8627C30.2576 15.2269 29.7698 16.5901 29.2838 17.954C28.8658 17.8726 28.4496 17.7136 28.1309 17.4206C27.9698 17.2745 27.8566 17.0829 27.7741 16.8825C27.6839 16.6659 27.6018 16.4467 27.5154 16.2286C27.1651 15.3334 26.8148 14.4385 26.4645 13.5432C26.4231 13.4418 26.3705 13.3455 26.3164 13.25L26.3167 13.2503Z" fill="#ED1B23"/>
<path d="M31.1097 13.2506C31.5871 13.2503 32.0648 13.2509 32.5425 13.2503C33.3168 14.212 34.0898 15.1747 34.864 16.1364C34.864 15.3924 34.864 14.6485 34.864 13.9045C34.8643 13.823 34.8687 13.735 34.8244 13.6629C34.7387 13.5218 34.6423 13.3872 34.5453 13.2536C35.0059 13.2536 35.4665 13.2536 35.9271 13.2536C35.8168 13.3935 35.7071 13.5337 35.5966 13.6736C35.5655 13.7121 35.5558 13.7628 35.5564 13.8117C35.5564 15.1979 35.5564 16.5842 35.5564 17.9704C35.2714 17.9331 34.984 17.8764 34.7239 17.7482C34.4892 17.6336 34.2858 17.46 34.1211 17.2566C33.4758 16.4547 32.8308 15.6529 32.1854 14.851V17.2941C32.1828 17.3467 32.2008 17.398 32.2342 17.4385C32.3442 17.5769 32.4533 17.7163 32.5623 17.8553C32.1018 17.8553 31.6412 17.8553 31.1809 17.8553C31.2542 17.7389 31.3323 17.6259 31.4124 17.514C31.4603 17.4448 31.5023 17.3654 31.4993 17.2786C31.4999 16.5764 31.4993 15.8745 31.4993 15.1723C31.4978 14.7347 31.5023 14.2965 31.4972 13.8588C31.3728 13.6533 31.2377 13.4537 31.1094 13.25L31.1097 13.2506Z" fill="#ED1B23"/>
<path d="M36.1764 13.2742C36.4061 13.265 36.6367 13.2727 36.8663 13.2703C37.3361 13.2703 37.8055 13.2697 38.2753 13.2706C38.57 13.276 38.8742 13.3166 39.1355 13.4633C39.3217 13.5722 39.495 13.7175 39.5976 13.9117C39.7238 14.1623 39.7737 14.4516 39.7338 14.7302C39.7028 14.9978 39.5866 15.2579 39.3906 15.4435C39.145 15.6789 38.8148 15.7976 38.4881 15.8635C38.3625 15.8796 38.2356 15.8868 38.1094 15.9008C37.9989 15.916 37.8898 15.8817 37.7795 15.8793C37.9974 15.7886 38.1993 15.6407 38.3181 15.4316C38.4582 15.1899 38.4789 14.8982 38.4479 14.6255C38.4251 14.4337 38.3616 14.2336 38.2138 14.1026C38.0837 13.9851 37.9046 13.9472 37.7346 13.9445C37.7325 14.8221 37.7343 15.6994 37.7337 16.5771C37.7352 16.7465 37.731 16.9159 37.7361 17.0854C37.747 17.3192 37.8029 17.5662 37.9655 17.7422C37.9947 17.7783 38.0417 17.801 38.0562 17.8478C37.4298 17.8484 36.8031 17.8505 36.1767 17.8467C36.2317 17.7971 36.2923 17.7524 36.3351 17.6909C36.4486 17.5388 36.4829 17.3431 36.4841 17.1567C36.4844 16.1132 36.4841 15.0694 36.4841 14.0259C36.4835 13.8768 36.4779 13.7241 36.4274 13.5824C36.3795 13.4544 36.2781 13.3586 36.1758 13.2739L36.1764 13.2742Z" fill="#005AAA"/>
<path d="M40.5232 13.2724C41.0934 13.2667 41.664 13.2715 42.2345 13.2697C42.6806 14.4638 43.1261 15.6583 43.5725 16.8527C43.6549 17.0818 43.733 17.3195 43.8817 17.5155C43.9568 17.6161 44.0437 17.7067 44.1353 17.7921C44.1522 17.8067 44.1655 17.8249 44.1714 17.8472C43.4634 17.849 42.7551 17.8472 42.0471 17.8481C42.0471 17.8413 42.0471 17.8282 42.0471 17.8213C42.1695 17.7515 42.291 17.6513 42.3241 17.5066C42.3563 17.3419 42.2987 17.1787 42.246 17.0248C42.1842 16.8378 42.1225 16.6504 42.0607 16.4634C41.5977 16.4634 41.1348 16.4631 40.6719 16.4637C40.6181 16.6179 40.5637 16.7718 40.5096 16.9261C40.4496 17.0901 40.3972 17.2584 40.373 17.432C40.3677 17.5645 40.4584 17.6748 40.5512 17.7581C40.579 17.787 40.6228 17.8046 40.6322 17.8472C40.1519 17.8484 39.6718 17.8484 39.1914 17.8472C39.1994 17.8144 39.2272 17.795 39.2505 17.7736C39.3685 17.6662 39.4705 17.5379 39.5367 17.3911C39.6242 17.1954 39.6907 16.9911 39.7599 16.7886C40.065 15.916 40.3697 15.0435 40.6751 14.1709C40.7301 14.0059 40.7898 13.8365 40.7866 13.6602C40.7768 13.4914 40.6473 13.3691 40.5238 13.2721L40.5232 13.2724ZM41.3406 14.4257C41.1851 14.888 41.0296 15.3504 40.8741 15.8128C41.193 15.8128 41.5123 15.8122 41.8316 15.8122C41.6681 15.3501 41.5046 14.8877 41.3406 14.426V14.4257Z" fill="#005AAA"/>
<path d="M43.1529 13.2763C43.719 13.2709 44.2857 13.2754 44.8519 13.2739C45.1971 13.8255 45.5398 14.3788 45.8868 14.9292C46.0796 14.6506 46.2744 14.3732 46.468 14.0948C46.5333 13.9997 46.5809 13.8929 46.6131 13.7822C46.6415 13.6784 46.6486 13.5609 46.5922 13.4651C46.5463 13.3798 46.4621 13.3291 46.3855 13.2766C46.923 13.2703 47.4607 13.2757 47.9981 13.2739C47.4273 14.0972 46.8561 14.9205 46.2847 15.7439C46.2729 15.7597 46.2652 15.7782 46.2676 15.7982C46.2679 16.0631 46.2676 16.3277 46.2676 16.5923C46.269 16.8055 46.2605 17.0194 46.285 17.2315C46.3143 17.4072 46.3619 17.5898 46.4875 17.7219C46.5191 17.7667 46.5774 17.7932 46.593 17.8481C45.9453 17.849 45.2976 17.8496 44.6499 17.8475C44.6588 17.8141 44.6928 17.8019 44.7179 17.7831C44.8279 17.7094 44.895 17.5856 44.9269 17.4588C44.9725 17.2858 44.9577 17.105 44.9603 16.9279C44.9586 16.5415 44.9639 16.1549 44.958 15.7689C44.5527 15.1514 44.1382 14.5396 43.7297 13.9242C43.6315 13.775 43.5319 13.6259 43.4137 13.4922C43.3377 13.4072 43.2416 13.3449 43.1523 13.2757L43.1529 13.2763Z" fill="#005AAA"/>
<path d="M40.7196 18.7248C40.8727 18.6937 41.0294 18.6884 41.1852 18.6788C41.4149 18.6717 41.6567 18.6687 41.8684 18.7722C41.9701 18.8205 42.0644 18.8984 42.1049 19.0075C42.1628 19.1582 42.1365 19.3252 42.0993 19.4777C42.0546 19.6623 41.9571 19.8395 41.8027 19.9526C41.6233 20.0838 41.4028 20.1465 41.184 20.1629C41.0504 20.1742 40.9165 20.1611 40.7829 20.1554C40.7264 20.4233 40.6705 20.6912 40.6141 20.9591C40.6093 21.0002 40.5783 21.0414 40.5337 21.0381C40.4275 21.0381 40.3208 21.0414 40.215 21.0363C40.1792 21.0325 40.1692 20.9916 40.1798 20.9621C40.3306 20.2455 40.481 19.5293 40.6321 18.8128C40.6389 18.7671 40.675 18.7319 40.7199 18.7245L40.7196 18.7248ZM41.0158 19.0508C40.9629 19.3002 40.91 19.5496 40.8574 19.7993C41.0374 19.8064 41.2233 19.8267 41.398 19.7721C41.5154 19.7354 41.6121 19.642 41.652 19.5245C41.6872 19.4195 41.7173 19.3014 41.6795 19.1931C41.6481 19.1054 41.5532 19.0684 41.4696 19.0523C41.3197 19.0257 41.1663 19.0392 41.0155 19.0508H41.0158Z" fill="#009DDB"/>
<path d="M29.9307 18.6944C30.1791 18.6559 30.4436 18.6724 30.671 18.7878C30.7002 18.8066 30.7437 18.8269 30.7419 18.868C30.7345 18.9304 30.7162 18.9909 30.7053 19.0527C30.6979 19.0819 30.6949 19.1141 30.676 19.1386C30.658 19.1589 30.6284 19.1508 30.6068 19.1434C30.4457 19.0876 30.2763 19.0545 30.106 19.0503C29.9937 19.0512 29.866 19.0664 29.7859 19.1556C29.7279 19.2233 29.6966 19.3397 29.7646 19.4116C29.8622 19.5097 29.9831 19.5789 30.0948 19.6586C30.2379 19.7594 30.3999 19.8489 30.4939 20.0034C30.5997 20.1737 30.5628 20.3927 30.4886 20.5678C30.3904 20.8023 30.1681 20.9654 29.9275 21.0251C29.6851 21.0809 29.4246 21.0791 29.1884 20.9956C29.1234 20.9708 29.0516 20.9493 29.0055 20.8944C28.9963 20.8211 29.0303 20.7492 29.04 20.6764C29.0454 20.6337 29.0652 20.5684 29.1216 20.5881C29.3478 20.66 29.589 20.7167 29.8267 20.6752C29.9186 20.6594 30.0079 20.6087 30.0525 20.5234C30.0966 20.4413 30.1267 20.3318 30.0726 20.2474C30.0206 20.1761 29.9446 20.1284 29.8737 20.0789C29.7546 19.9956 29.6342 19.9136 29.516 19.8292C29.4022 19.7445 29.2969 19.6263 29.2833 19.4781C29.2686 19.2657 29.3445 19.044 29.498 18.8958C29.6138 18.7797 29.7726 18.7189 29.9313 18.6941L29.9307 18.6944Z" fill="#009DDB"/>
<path d="M37.112 18.9368C37.2024 18.9228 37.2923 18.9049 37.3831 18.8924C37.4061 18.8864 37.446 18.8953 37.4374 18.9273C37.4191 19.0397 37.3904 19.1507 37.3686 19.2629C37.4744 19.264 37.5802 19.2611 37.6861 19.264C37.7118 19.2623 37.7402 19.2813 37.7348 19.3109C37.7263 19.3768 37.7097 19.4418 37.6952 19.5069C37.6884 19.5471 37.6512 19.5785 37.6104 19.5749C37.5078 19.5764 37.4055 19.5743 37.3032 19.5755C37.232 19.9194 37.1578 20.2628 37.088 20.607C37.0865 20.6461 37.0602 20.712 37.1114 20.729C37.211 20.7523 37.3151 20.7255 37.415 20.7439C37.42 20.7478 37.4301 20.7559 37.4354 20.7598C37.4312 20.8373 37.4073 20.9128 37.3913 20.9889C37.3836 21.0288 37.3393 21.039 37.3056 21.0437C37.159 21.0643 37.0088 21.0718 36.8628 21.0449C36.7563 21.0351 36.6629 20.9495 36.6585 20.8391C36.6481 20.7362 36.6677 20.6333 36.6886 20.5327C36.7558 20.2139 36.8226 19.8947 36.8894 19.5755C36.8072 19.5603 36.7247 19.5471 36.6428 19.531C36.6177 19.5266 36.5837 19.5113 36.5908 19.4794C36.5982 19.4263 36.61 19.3738 36.6236 19.3219C36.631 19.2861 36.6653 19.2617 36.7014 19.2643C36.7859 19.262 36.8707 19.2649 36.9553 19.2634C36.9754 19.1746 36.9902 19.0842 37.0135 18.9959C37.0251 18.9517 37.075 18.9437 37.1129 18.9374L37.112 18.9368Z" fill="#009DDB"/>
<path d="M31.4934 19.2771C31.6909 19.2264 31.9112 19.2246 32.0983 19.3141C32.1317 19.3344 32.1881 19.3529 32.1819 19.4018C32.1689 19.4788 32.1533 19.556 32.1332 19.6315C32.1246 19.6742 32.0758 19.6765 32.0436 19.6604C31.9035 19.61 31.7512 19.5769 31.6028 19.6041C31.5002 19.6243 31.4148 19.6983 31.366 19.7896C31.2983 19.9101 31.2821 20.05 31.2516 20.1831C31.2268 20.3027 31.1913 20.4268 31.2182 20.5494C31.2371 20.6434 31.3288 20.7084 31.4213 20.7102C31.5605 20.7135 31.6983 20.683 31.8319 20.6457C31.8579 20.6377 31.8851 20.6371 31.9123 20.6365C31.9159 20.7045 31.894 20.7701 31.8825 20.8367C31.8739 20.879 31.8677 20.9312 31.8245 20.953C31.6844 21.0326 31.5209 21.0634 31.3613 21.0634C31.2363 21.0616 31.1071 21.0398 30.9983 20.9742C30.8883 20.9068 30.8185 20.7851 30.7987 20.6586C30.7757 20.5205 30.7973 20.3794 30.8274 20.2442C30.8685 20.062 30.8936 19.8722 30.9811 19.7046C31.0828 19.4985 31.2708 19.3341 31.494 19.2771H31.4934Z" fill="#009DDB"/>
<path d="M32.6332 19.3395C32.8395 19.2649 33.0615 19.2297 33.2806 19.2462C33.4124 19.2578 33.5549 19.2984 33.6386 19.4093C33.7287 19.5269 33.7299 19.6868 33.703 19.8264C33.6271 20.1897 33.5493 20.5524 33.4733 20.9155C33.4686 20.9453 33.455 20.9769 33.4216 20.9817C33.1408 21.0602 32.8437 21.0825 32.5546 21.0443C32.42 21.0247 32.2684 20.9748 32.204 20.8427C32.1425 20.6971 32.1794 20.5313 32.2309 20.3884C32.2799 20.2392 32.3991 20.1193 32.5424 20.0608C32.7692 19.9654 33.0202 19.983 33.2605 19.9806C33.2765 19.8827 33.3172 19.7825 33.2906 19.6832C33.2676 19.611 33.1824 19.5949 33.1171 19.5898C32.925 19.58 32.7337 19.6169 32.5495 19.6692C32.5303 19.6757 32.4928 19.6742 32.4963 19.6456C32.5022 19.5722 32.5229 19.5006 32.5374 19.4284C32.5442 19.3786 32.5921 19.3547 32.6341 19.3398L32.6332 19.3395ZM32.797 20.2741C32.7316 20.2872 32.669 20.3284 32.6444 20.3925C32.614 20.4701 32.5894 20.5539 32.5974 20.6383C32.603 20.6971 32.6619 20.729 32.7139 20.7368C32.8425 20.7571 32.9746 20.7517 33.102 20.7246C33.1354 20.5688 33.1674 20.4131 33.2002 20.2574C33.0657 20.2607 32.9297 20.2473 32.797 20.2744V20.2741Z" fill="#009DDB"/>
<path d="M34.2628 19.3234C34.5209 19.2662 34.7873 19.2244 35.0518 19.2498C35.1982 19.265 35.3622 19.3151 35.4403 19.452C35.5207 19.5982 35.5006 19.7751 35.4701 19.9326C35.3983 20.273 35.3256 20.6127 35.2541 20.9531C35.2484 20.9943 35.2183 21.0363 35.1736 21.0366C35.077 21.0384 34.9803 21.0384 34.8839 21.0366C34.8449 21.0381 34.8301 20.9916 34.8414 20.9603C34.9141 20.6112 34.9889 20.2625 35.0616 19.9135C35.0725 19.8359 35.0903 19.7488 35.0495 19.6769C35.0122 19.6152 34.9351 19.6012 34.8695 19.5952C34.7468 19.588 34.6241 19.605 34.5038 19.6271C34.4104 20.0707 34.3166 20.5146 34.2235 20.9582C34.2188 20.999 34.1878 21.0387 34.144 21.0366C34.0473 21.0381 33.9507 21.0387 33.8543 21.036C33.8153 21.0372 33.8011 20.9904 33.8123 20.9591C33.9217 20.44 34.0302 19.921 34.1413 19.4025C34.1502 19.344 34.2167 19.3357 34.2631 19.3231L34.2628 19.3234Z" fill="#009DDB"/>
<path d="M38.4936 19.2609C38.6526 19.2317 38.8226 19.2329 38.9751 19.2919C39.1031 19.34 39.206 19.4477 39.2515 19.5771C39.3033 19.7245 39.2959 19.8862 39.2642 20.0374C39.2252 20.2137 39.2013 20.3966 39.1158 20.5582C39.0106 20.7736 38.8211 20.9502 38.5914 21.0206C38.4256 21.0704 38.2452 21.0785 38.0773 21.0346C37.9452 21.0003 37.8246 20.9129 37.7625 20.7882C37.6847 20.6343 37.6886 20.4524 37.7211 20.2868C37.7637 20.0935 37.7891 19.8909 37.889 19.7167C38.0096 19.4837 38.2361 19.3086 38.4933 19.2615L38.4936 19.2609ZM38.5633 19.6034C38.4575 19.6144 38.3605 19.675 38.299 19.7618C38.221 19.8647 38.1911 19.9933 38.1675 20.1179C38.1412 20.2552 38.093 20.3978 38.1332 20.5374C38.1515 20.6099 38.2083 20.671 38.2801 20.6913C38.4025 20.7265 38.5412 20.6928 38.6343 20.6051C38.7386 20.5078 38.7871 20.3667 38.8125 20.2289C38.8338 20.112 38.8708 19.9965 38.8711 19.8766C38.8696 19.7985 38.8513 19.7125 38.7901 19.6592C38.7289 19.6049 38.6414 19.595 38.5633 19.6034Z" fill="#009DDB"/>
<path d="M42.3569 19.3376C42.5602 19.2651 42.7781 19.2305 42.9939 19.2457C43.1293 19.2568 43.2771 19.2982 43.3611 19.4143C43.4489 19.5333 43.4483 19.6929 43.4208 19.8325C43.3516 20.1618 43.2816 20.4908 43.2121 20.8202C43.2008 20.8667 43.1967 20.9162 43.1766 20.9601C43.1456 20.9905 43.0971 20.9911 43.0572 21.003C42.8239 21.0597 42.5815 21.0737 42.343 21.0532C42.2108 21.0379 42.0657 21.0123 41.9696 20.9109C41.8836 20.8211 41.8812 20.6853 41.9004 20.5693C41.9256 20.4258 41.9752 20.2779 42.0834 20.1758C42.2093 20.055 42.3852 20.0058 42.5543 19.9912C42.695 19.9748 42.8369 19.9819 42.9782 19.9804C42.9948 19.8859 43.0318 19.7895 43.0119 19.6926C42.9957 19.6171 42.9106 19.5956 42.8446 19.5903C42.6874 19.5804 42.5292 19.6034 42.3764 19.6401C42.3291 19.6502 42.2835 19.6696 42.2351 19.672C42.2017 19.6633 42.2161 19.6243 42.2191 19.6013C42.2321 19.5401 42.2427 19.4784 42.2584 19.4178C42.2688 19.371 42.3175 19.3525 42.3569 19.337V19.3376ZM42.5248 20.2725C42.4553 20.2841 42.3876 20.3271 42.3622 20.3957C42.3323 20.4732 42.3081 20.5565 42.3167 20.6403C42.3229 20.6952 42.3776 20.7274 42.4272 20.7355C42.5579 20.7572 42.6927 20.7522 42.8219 20.7238C42.8544 20.5681 42.8869 20.4127 42.9197 20.2573C42.7882 20.2603 42.6551 20.2477 42.5251 20.2725H42.5248Z" fill="#009DDB"/>
<path d="M43.7701 19.3521C43.763 19.3145 43.7837 19.2674 43.8268 19.268C43.9383 19.265 44.0503 19.2647 44.1621 19.268C44.1987 19.2695 44.2037 19.3136 44.204 19.342C44.2182 19.7599 44.2339 20.1775 44.2481 20.5954C44.2454 20.6348 44.2555 20.682 44.3048 20.6742C44.5017 20.2402 44.703 19.8079 44.9008 19.3745C44.9156 19.344 44.9268 19.3106 44.9499 19.285C44.9777 19.259 45.0188 19.268 45.0536 19.2659C45.1444 19.2683 45.2355 19.2629 45.3262 19.2683C45.362 19.2689 45.3741 19.3151 45.3543 19.3411C45.0823 19.892 44.8095 20.4424 44.5375 20.9931C44.4651 21.136 44.4015 21.2842 44.3072 21.4146C44.228 21.5294 44.1062 21.613 43.9708 21.6434C43.8094 21.6801 43.6409 21.6777 43.4783 21.65C43.4257 21.6395 43.3674 21.6338 43.3281 21.5933C43.3453 21.5211 43.3568 21.4474 43.3754 21.3758C43.381 21.3463 43.4068 21.323 43.4363 21.3194C43.5942 21.3135 43.7541 21.3585 43.9108 21.3239C44.0361 21.286 44.0831 21.1494 44.1358 21.0423C44.0692 21.0399 43.9894 21.0441 43.9421 20.9874C43.8774 20.9146 43.8759 20.8102 43.8682 20.7183C43.8357 20.2631 43.8029 19.8076 43.7701 19.3527V19.3521Z" fill="#009DDB"/>
<path d="M17.3403 13.7288L15.9701 15.1115L15.9015 15.1807L15.4664 15.6198L15.1444 15.9483L14.7093 16.3874L14.6407 16.453L14.4524 16.6466L14.3838 16.7122L13.7432 17.3586L13.6746 17.4243C13.4875 17.6128 13.2752 17.7745 13.0444 17.9048C12.9341 17.9672 12.8197 18.0215 12.7017 18.0674C12.4363 18.1712 12.1566 18.233 11.8728 18.2506C11.7008 18.2661 11.5275 18.2661 11.3555 18.2506C10.9798 18.2094 10.6161 18.0919 10.2865 17.9048C10.1372 17.827 9.99919 17.7291 9.87533 17.6146L9.7964 17.5349L7.29931 14.9907L7.24788 14.9388C7.20353 14.8902 7.16422 14.8371 7.1314 14.7798C7.04567 14.6333 7.00074 14.466 7.00133 14.2959C6.99956 14.2694 6.99956 14.2428 7.00133 14.2163V14.0504C7.03474 13.9248 7.09297 13.8073 7.17249 13.7047C7.19348 13.6778 7.21654 13.6522 7.24108 13.6286L7.28571 13.5836L9.97495 10.9045L11.5852 9.28317C11.9408 8.92371 12.5114 8.90403 12.8903 9.23813L17.3406 13.7288H17.3403Z" fill="#005BAA"/>
<path d="M12.4993 19.7587C12.2826 19.7578 12.0686 19.7095 11.8723 19.617L11.3618 19.1054L11.2349 18.981L11.2142 18.9568L10.9777 18.7182L9.78906 17.5047L9.86799 17.5843C9.99245 17.7007 10.132 17.7994 10.2824 17.8782C10.6121 18.0649 10.9757 18.1827 11.3514 18.2239C11.5235 18.2394 11.6967 18.2394 11.8687 18.2239C12.1528 18.2063 12.4325 18.1445 12.6976 18.0407C12.8156 17.9948 12.93 17.9405 13.0403 17.8782C13.2711 17.7481 13.4834 17.5864 13.6705 17.3976L13.7391 17.332L14.3797 16.6855L14.4483 16.6199L14.6366 16.4263L14.7052 16.3607L15.1403 15.9216L15.4623 15.5931L15.9078 15.1782L15.9763 15.109L18.7342 12.3434L19.8646 11.0747L19.9264 11.0159C20.274 10.6666 20.836 10.6666 21.1837 11.0159L21.8071 11.645H21.8278C21.5449 11.6331 21.27 11.7393 21.0672 11.9389L18.9603 14.013L18.9396 14.0371L15.2808 17.7153L13.9274 19.0532L13.8452 19.1397C13.6611 19.3202 13.4494 19.4696 13.2182 19.5821C13.0896 19.645 12.9539 19.6916 12.8141 19.7205C12.734 19.7375 12.6527 19.7479 12.5708 19.7515L12.499 19.7584L12.4993 19.7587Z" fill="#ED1C24"/>
<path d="M25.1862 16.3197L25.1177 16.3889L22.1337 19.4448L18.9922 22.6564C18.8946 22.7557 18.7891 22.847 18.677 22.9296L18.6324 22.9607C17.5058 23.7729 15.9665 23.6641 14.9632 22.7014L14.881 22.6531L14.3433 22.1105L12.8256 20.579L12.3186 20.0638L12.25 19.9913C12.3316 20.005 12.4141 20.0119 12.4965 20.0122H12.5684C12.6653 20.008 12.7614 19.9952 12.856 19.9743C13.0165 19.9421 13.172 19.8887 13.3184 19.8153C13.5708 19.6888 13.802 19.5233 14.0036 19.3243L14.0961 19.2241L15.2609 18.0693L19.2656 14.0938L19.2863 14.066L21.2528 12.144C21.5159 11.8896 21.9191 11.8535 22.2224 12.0575L22.6815 12.5241L25.1824 15.051C25.2049 15.0725 25.2253 15.0955 25.2442 15.1202C25.5327 15.4758 25.5076 15.9943 25.186 16.3197H25.1862Z" fill="#ED1C24"/>
<path d="M15.5169 12.971C15.4433 13.0396 15.33 13.0396 15.2564 12.971C14.0731 11.7691 12.148 11.7629 10.957 12.9573C9.76592 14.1514 9.75972 16.094 10.9434 17.2959L11.8559 18.2233C11.8568 18.2302 11.4956 18.2352 11.328 18.2194L10.6797 17.5652C9.35531 16.2193 9.363 14.0446 10.6968 12.7082C12.0307 11.3718 14.1857 11.3795 15.5101 12.7255C15.5745 12.7935 15.5775 12.8994 15.5169 12.971Z" fill="#009EDB"/>
<path d="M16.9346 14.1462L16.6777 14.4021L16.229 13.9457C16.158 13.8741 16.158 13.7581 16.229 13.6865C16.2999 13.6149 16.4149 13.6149 16.4859 13.6865L16.9346 14.1462Z" fill="#009EDB"/>
<path d="M13.04 17.8774C13.04 17.8774 12.8154 17.9956 12.6974 18.04L11.4538 16.785C10.665 15.9835 10.553 14.7294 11.1865 13.7981C11.2442 13.7155 11.3565 13.694 11.4402 13.7498C11.5223 13.8076 11.5424 13.9219 11.4851 14.0048C11.4851 14.0048 11.4848 14.0054 11.4845 14.0054C10.9503 14.7912 11.0455 15.8492 11.7106 16.5255L13.0397 17.8771L13.04 17.8774Z" fill="#009EDB"/>
<path d="M16.1703 14.9129L15.982 15.1029L15.9202 15.1653L14.5054 13.7239C13.9771 13.1884 13.1937 13.0023 12.4842 13.2433C12.3932 13.2857 12.2853 13.2457 12.2433 13.1541C12.2013 13.0622 12.241 12.9533 12.3317 12.911C12.3444 12.905 12.3574 12.9005 12.371 12.8979C13.2076 12.621 14.127 12.8459 14.7451 13.4787L16.1703 14.9132V14.9129Z" fill="#009EDB"/>
<path d="M15.3949 15.6597L15.1392 15.9205L13.7329 14.491C13.3525 14.1763 12.7914 14.2323 12.4795 14.6163C12.2093 14.9489 12.2105 15.4282 12.4825 15.7597L13.3971 16.6895C13.468 16.7611 13.468 16.8771 13.3971 16.9487C13.3261 17.0203 13.2111 17.0203 13.1402 16.9487L12.2084 16.0189C11.7422 15.4995 11.7812 14.6974 12.2959 14.227C12.7784 13.7858 13.515 13.7893 13.9934 14.2353L15.3949 15.66V15.6597Z" fill="#009EDB"/>
<path d="M14.6361 16.4267L14.3845 16.6809L12.9712 15.2582C12.9002 15.1866 12.9002 15.0706 12.9712 14.999C13.0421 14.9274 13.1571 14.9274 13.2281 14.999L14.6361 16.4267Z" fill="#009EDB"/>
</svg>
